<svg xmlns="http://www.w3.org/2000/svg" xmlns:xlink="http://www.w3.org/1999/xlink" width="1600" zoomAndPan="magnify" viewBox="0 0 1200 374.999991" height="500" preserveAspectRatio="xMidYMid meet" version="1.0"><defs><g/><clipPath id="c47e418be8"><path d="M 1123 104 L 1182 104 L 1182 165 L 1123 165 Z M 1123 104 " clip-rule="nonzero"/></clipPath><clipPath id="a07db96cd4"><path d="M 1142.425781 104.605469 L 1181.15625 122.699219 L 1161.792969 164.152344 L 1123.0625 146.054688 Z M 1142.425781 104.605469 " clip-rule="nonzero"/></clipPath><clipPath id="06e50a719c"><path d="M 1128.035156 76.78125 L 1210.933594 115.507812 L 1168.714844 205.882812 L 1085.8125 167.152344 Z M 1128.035156 76.78125 " clip-rule="nonzero"/></clipPath><clipPath id="7e9b336e54"><path d="M 1140 114 L 1174 114 L 1174 153 L 1140 153 Z M 1140 114 " clip-rule="nonzero"/></clipPath><clipPath id="2e59c09750"><path d="M 1142.425781 104.605469 L 1181.15625 122.699219 L 1161.792969 164.152344 L 1123.0625 146.054688 Z M 1142.425781 104.605469 " clip-rule="nonzero"/></clipPath><clipPath id="389c309789"><path d="M 1128.035156 76.78125 L 1210.933594 115.507812 L 1168.714844 205.882812 L 1085.8125 167.152344 Z M 1128.035156 76.78125 " clip-rule="nonzero"/></clipPath></defs><g fill="#191919" fill-opacity="1"><g transform="translate(14.602268, 295.099031)"><g><path d="M 151.171875 -35.21875 L 151.171875 0 L 10.28125 0 L 10.28125 -27.59375 L 90.703125 -122.703125 L 12.328125 -122.703125 L 12.328125 -157.921875 L 148.53125 -157.921875 L 148.53125 -130.328125 L 68.109375 -35.21875 Z M 151.171875 -35.21875 "/></g></g></g><g fill="#191919" fill-opacity="1"><g transform="translate(139.040102, 295.099031)"><g><path d="M 21.140625 -157.921875 L 66.921875 -157.921875 L 66.921875 0 L 21.140625 0 Z M 44.03125 -179.9375 C 35.613281 -179.9375 28.765625 -182.382812 23.484375 -187.28125 C 18.203125 -192.175781 15.5625 -198.242188 15.5625 -205.484375 C 15.5625 -212.722656 18.203125 -218.785156 23.484375 -223.671875 C 28.765625 -228.566406 35.613281 -231.015625 44.03125 -231.015625 C 52.445312 -231.015625 59.296875 -228.664062 64.578125 -223.96875 C 69.859375 -219.28125 72.5 -213.410156 72.5 -206.359375 C 72.5 -198.734375 69.859375 -192.421875 64.578125 -187.421875 C 59.296875 -182.429688 52.445312 -179.9375 44.03125 -179.9375 Z M 44.03125 -179.9375 "/></g></g></g><g fill="#191919" fill-opacity="1"><g transform="translate(192.450065, 295.099031)"><g><path d="M 9.390625 59.296875 C -6.648438 59.296875 -18.878906 56.359375 -27.296875 50.484375 L -14.96875 17.3125 C -9.6875 21.03125 -3.226562 22.890625 4.40625 22.890625 C 10.269531 22.890625 14.863281 20.984375 18.1875 17.171875 C 21.519531 13.359375 23.1875 7.632812 23.1875 0 L 23.1875 -157.921875 L 68.984375 -157.921875 L 68.984375 -0.296875 C 68.984375 18.097656 63.75 32.628906 53.28125 43.296875 C 42.8125 53.960938 28.179688 59.296875 9.390625 59.296875 Z M 46.09375 -179.9375 C 37.675781 -179.9375 30.828125 -182.382812 25.546875 -187.28125 C 20.265625 -192.175781 17.625 -198.242188 17.625 -205.484375 C 17.625 -212.722656 20.265625 -218.785156 25.546875 -223.671875 C 30.828125 -228.566406 37.675781 -231.015625 46.09375 -231.015625 C 54.507812 -231.015625 61.359375 -228.664062 66.640625 -223.96875 C 71.921875 -219.28125 74.5625 -213.410156 74.5625 -206.359375 C 74.5625 -198.734375 71.921875 -192.421875 66.640625 -187.421875 C 61.359375 -182.429688 54.507812 -179.9375 46.09375 -179.9375 Z M 46.09375 -179.9375 "/></g></g></g><g fill="#191919" fill-opacity="1"><g transform="translate(247.621079, 295.099031)"><g><path d="M 74.265625 2.34375 C 61.148438 2.34375 48.332031 0.726562 35.8125 -2.5 C 23.289062 -5.726562 13.3125 -9.785156 5.875 -14.671875 L 21.140625 -47.546875 C 28.179688 -43.046875 36.691406 -39.378906 46.671875 -36.546875 C 56.648438 -33.710938 66.4375 -32.296875 76.03125 -32.296875 C 95.40625 -32.296875 105.09375 -37.085938 105.09375 -46.671875 C 105.09375 -51.171875 102.445312 -54.398438 97.15625 -56.359375 C 91.875 -58.316406 83.753906 -59.976562 72.796875 -61.34375 C 59.878906 -63.300781 49.210938 -65.550781 40.796875 -68.09375 C 32.390625 -70.644531 25.101562 -75.148438 18.9375 -81.609375 C 12.769531 -88.066406 9.6875 -97.265625 9.6875 -109.203125 C 9.6875 -119.179688 12.570312 -128.035156 18.34375 -135.765625 C 24.113281 -143.492188 32.523438 -149.507812 43.578125 -153.8125 C 54.640625 -158.125 67.707031 -160.28125 82.78125 -160.28125 C 93.9375 -160.28125 105.039062 -159.054688 116.09375 -156.609375 C 127.15625 -154.160156 136.304688 -150.785156 143.546875 -146.484375 L 128.28125 -113.890625 C 114.382812 -121.722656 99.21875 -125.640625 82.78125 -125.640625 C 73 -125.640625 65.660156 -124.269531 60.765625 -121.53125 C 55.867188 -118.789062 53.421875 -115.265625 53.421875 -110.953125 C 53.421875 -106.066406 56.0625 -102.644531 61.34375 -100.6875 C 66.632812 -98.726562 75.050781 -96.867188 86.59375 -95.109375 C 99.507812 -92.953125 110.078125 -90.648438 118.296875 -88.203125 C 126.515625 -85.765625 133.65625 -81.316406 139.71875 -74.859375 C 145.789062 -68.398438 148.828125 -59.394531 148.828125 -47.84375 C 148.828125 -38.0625 145.890625 -29.351562 140.015625 -21.71875 C 134.148438 -14.09375 125.585938 -8.175781 114.328125 -3.96875 C 103.078125 0.238281 89.722656 2.34375 74.265625 2.34375 Z M 74.265625 2.34375 "/></g></g></g><g fill="#191919" fill-opacity="1"><g transform="translate(368.536867, 295.099031)"><g><path d="M 123 -7.625 C 118.5 -4.300781 112.96875 -1.804688 106.40625 -0.140625 C 99.851562 1.515625 92.957031 2.34375 85.71875 2.34375 C 66.925781 2.34375 52.394531 -2.445312 42.125 -12.03125 C 31.851562 -21.625 26.71875 -35.71875 26.71875 -54.3125 L 26.71875 -119.1875 L 2.34375 -119.1875 L 2.34375 -154.40625 L 26.71875 -154.40625 L 26.71875 -192.859375 L 72.5 -192.859375 L 72.5 -154.40625 L 111.84375 -154.40625 L 111.84375 -119.1875 L 72.5 -119.1875 L 72.5 -54.890625 C 72.5 -48.234375 74.210938 -43.09375 77.640625 -39.46875 C 81.066406 -35.851562 85.910156 -34.046875 92.171875 -34.046875 C 99.410156 -34.046875 105.578125 -36.003906 110.671875 -39.921875 Z M 123 -7.625 "/></g></g></g><g fill="#191919" fill-opacity="1"><g transform="translate(461.276347, 295.099031)"><g><path d="M 84.828125 -160.28125 C 109.296875 -160.28125 128.082031 -154.457031 141.1875 -142.8125 C 154.300781 -131.164062 160.859375 -113.601562 160.859375 -90.125 L 160.859375 0 L 118 0 L 118 -19.671875 C 109.394531 -4.992188 93.347656 2.34375 69.859375 2.34375 C 57.734375 2.34375 47.21875 0.289062 38.3125 -3.8125 C 29.40625 -7.925781 22.601562 -13.601562 17.90625 -20.84375 C 13.207031 -28.082031 10.859375 -36.300781 10.859375 -45.5 C 10.859375 -60.175781 16.382812 -71.722656 27.4375 -80.140625 C 38.5 -88.554688 55.578125 -92.765625 78.671875 -92.765625 L 115.078125 -92.765625 C 115.078125 -102.742188 112.039062 -110.421875 105.96875 -115.796875 C 99.90625 -121.179688 90.804688 -123.875 78.671875 -123.875 C 70.253906 -123.875 61.984375 -122.550781 53.859375 -119.90625 C 45.742188 -117.269531 38.847656 -113.703125 33.171875 -109.203125 L 16.734375 -141.203125 C 25.335938 -147.265625 35.65625 -151.957031 47.6875 -155.28125 C 59.726562 -158.613281 72.109375 -160.28125 84.828125 -160.28125 Z M 81.3125 -28.46875 C 89.132812 -28.46875 96.078125 -30.273438 102.140625 -33.890625 C 108.210938 -37.515625 112.523438 -42.851562 115.078125 -49.90625 L 115.078125 -66.046875 L 83.65625 -66.046875 C 64.875 -66.046875 55.484375 -59.878906 55.484375 -47.546875 C 55.484375 -41.679688 57.78125 -37.035156 62.375 -33.609375 C 66.976562 -30.179688 73.289062 -28.46875 81.3125 -28.46875 Z M 81.3125 -28.46875 "/></g></g></g><g fill="#191919" fill-opacity="1"><g transform="translate(607.433462, 295.099031)"><g><path d="M 74.265625 2.34375 C 61.148438 2.34375 48.332031 0.726562 35.8125 -2.5 C 23.289062 -5.726562 13.3125 -9.785156 5.875 -14.671875 L 21.140625 -47.546875 C 28.179688 -43.046875 36.691406 -39.378906 46.671875 -36.546875 C 56.648438 -33.710938 66.4375 -32.296875 76.03125 -32.296875 C 95.40625 -32.296875 105.09375 -37.085938 105.09375 -46.671875 C 105.09375 -51.171875 102.445312 -54.398438 97.15625 -56.359375 C 91.875 -58.316406 83.753906 -59.976562 72.796875 -61.34375 C 59.878906 -63.300781 49.210938 -65.550781 40.796875 -68.09375 C 32.390625 -70.644531 25.101562 -75.148438 18.9375 -81.609375 C 12.769531 -88.066406 9.6875 -97.265625 9.6875 -109.203125 C 9.6875 -119.179688 12.570312 -128.035156 18.34375 -135.765625 C 24.113281 -143.492188 32.523438 -149.507812 43.578125 -153.8125 C 54.640625 -158.125 67.707031 -160.28125 82.78125 -160.28125 C 93.9375 -160.28125 105.039062 -159.054688 116.09375 -156.609375 C 127.15625 -154.160156 136.304688 -150.785156 143.546875 -146.484375 L 128.28125 -113.890625 C 114.382812 -121.722656 99.21875 -125.640625 82.78125 -125.640625 C 73 -125.640625 65.660156 -124.269531 60.765625 -121.53125 C 55.867188 -118.789062 53.421875 -115.265625 53.421875 -110.953125 C 53.421875 -106.066406 56.0625 -102.644531 61.34375 -100.6875 C 66.632812 -98.726562 75.050781 -96.867188 86.59375 -95.109375 C 99.507812 -92.953125 110.078125 -90.648438 118.296875 -88.203125 C 126.515625 -85.765625 133.65625 -81.316406 139.71875 -74.859375 C 145.789062 -68.398438 148.828125 -59.394531 148.828125 -47.84375 C 148.828125 -38.0625 145.890625 -29.351562 140.015625 -21.71875 C 134.148438 -14.09375 125.585938 -8.175781 114.328125 -3.96875 C 103.078125 0.238281 89.722656 2.34375 74.265625 2.34375 Z M 74.265625 2.34375 "/></g></g></g><g fill="#191919" fill-opacity="1"><g transform="translate(728.349278, 295.099031)"><g><path d="M 123 -7.625 C 118.5 -4.300781 112.96875 -1.804688 106.40625 -0.140625 C 99.851562 1.515625 92.957031 2.34375 85.71875 2.34375 C 66.925781 2.34375 52.394531 -2.445312 42.125 -12.03125 C 31.851562 -21.625 26.71875 -35.71875 26.71875 -54.3125 L 26.71875 -119.1875 L 2.34375 -119.1875 L 2.34375 -154.40625 L 26.71875 -154.40625 L 26.71875 -192.859375 L 72.5 -192.859375 L 72.5 -154.40625 L 111.84375 -154.40625 L 111.84375 -119.1875 L 72.5 -119.1875 L 72.5 -54.890625 C 72.5 -48.234375 74.210938 -43.09375 77.640625 -39.46875 C 81.066406 -35.851562 85.910156 -34.046875 92.171875 -34.046875 C 99.410156 -34.046875 105.578125 -36.003906 110.671875 -39.921875 Z M 123 -7.625 "/></g></g></g><g fill="#191919" fill-opacity="1"><g transform="translate(821.088759, 295.099031)"><g><path d="M 117.125 -160.28125 C 136.695312 -160.28125 152.5 -154.40625 164.53125 -142.65625 C 176.570312 -130.914062 182.59375 -113.5 182.59375 -90.40625 L 182.59375 0 L 136.796875 0 L 136.796875 -83.375 C 136.796875 -95.894531 134.054688 -105.234375 128.578125 -111.390625 C 123.097656 -117.554688 115.171875 -120.640625 104.796875 -120.640625 C 93.253906 -120.640625 84.054688 -117.066406 77.203125 -109.921875 C 70.347656 -102.785156 66.921875 -92.171875 66.921875 -78.078125 L 66.921875 0 L 21.140625 0 L 21.140625 -157.921875 L 64.875 -157.921875 L 64.875 -139.4375 C 70.9375 -146.09375 78.46875 -151.226562 87.46875 -154.84375 C 96.476562 -158.46875 106.363281 -160.28125 117.125 -160.28125 Z M 117.125 -160.28125 "/></g></g></g><g fill="#191919" fill-opacity="1"><g transform="translate(988.965126, 295.099031)"><g><path d="M 175.828125 -78.375 C 175.828125 -77.789062 175.535156 -73.679688 174.953125 -66.046875 L 55.484375 -66.046875 C 57.628906 -56.265625 62.710938 -48.535156 70.734375 -42.859375 C 78.765625 -37.179688 88.75 -34.34375 100.6875 -34.34375 C 108.90625 -34.34375 116.191406 -35.566406 122.546875 -38.015625 C 128.910156 -40.460938 134.832031 -44.328125 140.3125 -49.609375 L 164.6875 -23.1875 C 149.8125 -6.164062 128.085938 2.34375 99.515625 2.34375 C 81.703125 2.34375 65.945312 -1.128906 52.25 -8.078125 C 38.550781 -15.023438 27.984375 -24.660156 20.546875 -36.984375 C 13.109375 -49.316406 9.390625 -63.3125 9.390625 -78.96875 C 9.390625 -94.425781 13.054688 -108.367188 20.390625 -120.796875 C 27.734375 -133.222656 37.8125 -142.910156 50.625 -149.859375 C 63.445312 -156.804688 77.785156 -160.28125 93.640625 -160.28125 C 109.097656 -160.28125 123.085938 -156.953125 135.609375 -150.296875 C 148.140625 -143.640625 157.972656 -134.097656 165.109375 -121.671875 C 172.253906 -109.242188 175.828125 -94.8125 175.828125 -78.375 Z M 93.9375 -125.640625 C 83.5625 -125.640625 74.847656 -122.703125 67.796875 -116.828125 C 60.753906 -110.960938 56.453125 -102.941406 54.890625 -92.765625 L 132.6875 -92.765625 C 131.113281 -102.742188 126.804688 -110.71875 119.765625 -116.6875 C 112.722656 -122.65625 104.113281 -125.640625 93.9375 -125.640625 Z M 93.9375 -125.640625 "/></g></g></g><path fill="#88adff" d="M 270.535156 77.210938 C 270.796875 76.183594 271.3125 75.242188 271.773438 74.289062 C 273.371094 70.96875 274.363281 67.480469 274.746094 63.820312 C 275.128906 60.160156 274.882812 56.542969 274.011719 52.96875 C 273.765625 51.984375 273.457031 50.984375 272.769531 50.234375 C 271.621094 48.988281 269.695312 48.785156 268.03125 49.132812 C 265.832031 49.585938 263.878906 50.8125 261.984375 52.019531 C 260.175781 53.164062 258.222656 54.511719 257.714844 56.585938 C 257.410156 57.839844 257.6875 59.230469 257.140625 60.398438 C 256.542969 61.675781 255.125 62.351562 253.753906 62.71875 C 251.667969 63.28125 249.382812 63.335938 247.398438 62.484375 C 245.410156 61.628906 243.808594 59.75 243.660156 57.605469 C 243.613281 56.929688 243.695312 56.214844 243.386719 55.609375 C 242.796875 54.453125 241.023438 54.433594 239.996094 55.242188 C 239.21875 54.28125 237.59375 53.90625 236.746094 54.800781 C 236.746094 56.339844 236.710938 58.011719 235.816406 59.28125 C 235.359375 59.886719 234.804688 60.386719 234.160156 60.789062 C 232.089844 62.195312 229.582031 63.144531 227.09375 62.835938 C 224.605469 62.527344 222.222656 60.722656 221.78125 58.265625 C 221.621094 57.386719 221.695312 56.394531 221.171875 55.65625 C 220.847656 55.203125 220.34375 54.917969 219.855469 54.648438 C 217.5625 53.382812 215.257812 52.140625 212.9375 50.921875 C 210.902344 49.859375 208.234375 48.875 206.503906 50.375 C 205.652344 51.117188 205.3125 52.277344 205.078125 53.375 C 204.648438 55.410156 204.421875 57.472656 204.394531 59.554688 C 204.371094 61.632812 204.546875 63.699219 204.929688 65.746094 C 205.308594 67.792969 205.882812 69.785156 206.652344 71.71875 C 207.425781 73.65625 208.375 75.496094 209.507812 77.246094 L 210.535156 76.4375 C 209.691406 78.292969 209.011719 80.210938 208.5 82.183594 C 207.988281 84.15625 207.648438 86.160156 207.480469 88.191406 C 207.3125 90.222656 207.320312 92.25 207.503906 94.28125 C 207.6875 96.3125 208.046875 98.3125 208.574219 100.28125 C 209.703125 104.429688 211.671875 108.464844 214.886719 111.335938 C 216.832031 113.078125 219.160156 114.332031 221.464844 115.570312 C 224.175781 117.023438 226.90625 118.488281 229.847656 119.394531 C 232.503906 120.207031 235.351562 120.546875 238.050781 119.980469 C 238.285156 120.210938 238.570312 120.339844 238.902344 120.359375 C 245.464844 121.503906 252.074219 118.953125 258.082031 116.089844 C 261.710938 114.363281 265.417969 112.375 267.6875 109.070312 C 268.710938 107.578125 269.390625 105.882812 269.945312 104.164062 C 271 100.886719 271.625 97.527344 271.8125 94.089844 C 272.003906 90.652344 271.757812 87.246094 271.070312 83.875 C 270.621094 81.671875 269.976562 79.390625 270.535156 77.210938 Z M 245.757812 107.296875 L 244.40625 112.851562 C 243.84375 115.15625 242.832031 117.898438 240.484375 118.289062 C 239.882812 118.390625 239.238281 118.3125 238.671875 118.539062 L 238.625 118.5625 C 238.183594 117.714844 237.316406 117.003906 236.652344 116.257812 C 234.769531 114.152344 234.203125 111.21875 233.707031 108.445312 C 233.605469 107.855469 233.5 107.238281 233.707031 106.679688 C 233.917969 106.078125 234.433594 105.636719 234.949219 105.261719 C 236.09375 104.40625 237.394531 103.699219 238.277344 102.570312 C 238.835938 101.828125 239.214844 101.007812 239.417969 100.109375 C 240.277344 102.519531 241.769531 105.078125 244.289062 105.589844 C 244.851562 105.703125 245.539062 105.773438 245.785156 106.292969 C 245.917969 106.601562 245.839844 106.964844 245.757812 107.296875 Z M 245.757812 107.296875 " fill-opacity="1" fill-rule="nonzero"/><path fill="#ff1a6c" d="M 233.972656 106.394531 C 234.746094 110.359375 236.078125 114.375 238.890625 117.277344 C 239.082031 117.511719 239.320312 117.6875 239.605469 117.796875 C 240.167969 117.960938 240.738281 117.574219 241.15625 117.179688 C 243.832031 114.679688 244.871094 110.96875 245.804688 107.445312 C 245.863281 107.277344 245.875 107.109375 245.839844 106.933594 C 245.765625 106.746094 245.640625 106.597656 245.46875 106.492188 C 243.523438 105.074219 240.820312 104.359375 239.832031 102.175781 C 238.976562 103.558594 237.890625 104.734375 236.574219 105.699219 C 236.234375 105.941406 235.757812 106.171875 235.429688 105.917969 " fill-opacity="1" fill-rule="nonzero"/><path fill="#ffffff" d="M 216.53125 16.75 C 214.632812 18.140625 214.5 20.972656 215.226562 23.207031 C 215.953125 25.4375 217.335938 27.433594 217.917969 29.710938 C 218.601562 32.4375 218.066406 35.308594 218.222656 38.117188 C 218.363281 41.050781 219.261719 43.730469 220.917969 46.160156 C 221.957031 47.652344 223.269531 48.929688 224.652344 50.125 C 224.867188 50.277344 225.015625 50.476562 225.09375 50.726562 C 225.117188 50.972656 225.0625 51.199219 224.921875 51.40625 C 224.257812 52.652344 223.214844 53.671875 222.488281 54.886719 C 221.761719 56.105469 221.382812 57.695312 222.101562 58.914062 C 222.46875 59.457031 222.9375 59.898438 223.503906 60.234375 C 225.71875 61.710938 228.484375 62.582031 231.066406 61.929688 C 233.648438 61.273438 235.828125 58.785156 235.527344 56.15625 C 235.476562 55.714844 235.375 55.230469 235.628906 54.871094 C 235.8125 54.644531 236.050781 54.5 236.332031 54.429688 C 238.164062 53.824219 240.160156 54.355469 242.015625 54.890625 C 242.253906 54.945312 242.476562 55.039062 242.679688 55.179688 C 243.136719 55.535156 243.179688 56.191406 243.261719 56.761719 C 243.816406 60.570312 247.988281 63.164062 251.835938 62.820312 C 253.433594 62.675781 255.019531 62.105469 256.210938 61.039062 C 257.398438 59.96875 258.144531 58.371094 258.003906 56.78125 C 257.863281 55.191406 256.871094 53.75 255.628906 52.703125 C 255.332031 52.488281 255.085938 52.222656 254.894531 51.910156 C 254.429688 50.976562 255.289062 49.96875 256.015625 49.222656 C 257.027344 48.164062 257.902344 47.003906 258.640625 45.742188 C 259.382812 44.480469 259.96875 43.152344 260.398438 41.753906 C 260.828125 40.359375 261.089844 38.933594 261.1875 37.472656 C 261.285156 36.015625 261.210938 34.566406 260.96875 33.125 C 260.820312 32.269531 260.609375 31.390625 260.75 30.53125 C 260.890625 29.671875 261.371094 28.945312 261.777344 28.191406 C 262.742188 26.394531 263.347656 24.480469 263.585938 22.457031 C 263.828125 20.429688 263.691406 18.429688 263.175781 16.457031 C 260.632812 16.410156 259.324219 19.679688 256.914062 20.472656 C 255.34375 20.992188 253.652344 20.359375 252.09375 19.8125 C 244.710938 17.199219 236.265625 16.394531 229.203125 19.773438 C 228.832031 19.953125 228.4375 20.148438 228.023438 20.113281 C 227.613281 20.082031 227.234375 19.816406 226.890625 19.554688 C 223.992188 17.414062 220.40625 15.71875 216.851562 16.371094 " fill-opacity="1" fill-rule="nonzero"/><path fill="#547fdd" d="M 230.683594 73.195312 C 229.894531 72.257812 228.976562 71.394531 227.875 70.847656 C 225.332031 69.585938 222.121094 70.246094 219.871094 71.972656 C 217.617188 73.699219 216.21875 76.324219 215.375 79.019531 C 214.855469 80.699219 214.53125 82.511719 214.804688 84.230469 C 214.820312 84.484375 214.847656 84.746094 214.882812 85.007812 C 214.980469 85.6875 215.152344 86.351562 215.390625 86.996094 C 215.632812 87.640625 215.941406 88.25 216.316406 88.832031 C 216.6875 89.410156 217.121094 89.941406 217.609375 90.425781 C 218.097656 90.914062 218.632812 91.34375 219.214844 91.714844 C 219.796875 92.085938 220.414062 92.390625 221.0625 92.628906 C 221.710938 92.871094 222.375 93.039062 223.058594 93.132812 C 223.746094 93.230469 224.429688 93.253906 225.121094 93.203125 C 225.808594 93.152344 226.484375 93.027344 227.148438 92.832031 C 228.320312 92.449219 229.4375 91.949219 230.503906 91.332031 C 231.550781 90.761719 232.621094 90.140625 233.292969 89.160156 C 233.746094 88.4375 234.039062 87.660156 234.179688 86.824219 C 234.410156 85.628906 234.507812 84.425781 234.472656 83.210938 C 234.4375 81.996094 234.269531 80.796875 233.964844 79.621094 C 233.664062 78.441406 233.234375 77.3125 232.683594 76.226562 C 232.128906 75.144531 231.460938 74.132812 230.683594 73.195312 Z M 230.683594 73.195312 " fill-opacity="1" fill-rule="nonzero"/><path fill="#547fdd" d="M 263.664062 112.394531 C 262.433594 111.765625 261.652344 110.507812 261.117188 109.242188 C 260.550781 107.898438 260.179688 106.4375 260.300781 104.988281 C 260.421875 103.535156 261.09375 102.085938 262.28125 101.242188 C 263.609375 100.296875 265.324219 100.199219 266.949219 100.140625 C 266.664062 98.234375 266.78125 96.222656 267.613281 94.476562 C 268.445312 92.730469 270.035156 91.289062 271.941406 90.941406 C 272.460938 95.371094 270.941406 99.75 269.449219 103.964844 C 268.324219 107.128906 266.953125 110.574219 263.960938 112.117188 " fill-opacity="1" fill-rule="nonzero"/><path fill="#547fdd" d="M 217.964844 113.480469 C 219.109375 112.96875 220.277344 112.46875 221.507812 112.273438 C 222.023438 112.191406 222.539062 112.160156 223.058594 112.1875 C 223.578125 112.210938 224.089844 112.289062 224.59375 112.421875 C 225.097656 112.550781 225.582031 112.734375 226.046875 112.964844 C 226.515625 113.195312 226.949219 113.472656 227.359375 113.792969 C 227.765625 114.117188 228.136719 114.476562 228.46875 114.875 C 228.800781 115.273438 229.089844 115.703125 229.332031 116.160156 C 229.578125 116.617188 229.769531 117.097656 229.914062 117.59375 C 230.054688 118.09375 230.144531 118.601562 230.183594 119.117188 C 225.777344 117.730469 221.636719 115.78125 217.761719 113.273438 " fill-opacity="1" fill-rule="nonzero"/><path fill="#547fdd" d="M 219.109375 62.433594 C 219.003906 62.65625 218.667969 62.515625 218.492188 62.359375 L 213.316406 57.992188 C 212.980469 58.542969 212.875 59.199219 212.777344 59.835938 C 212.28125 63.417969 211.550781 67.292969 212.265625 70.839844 C 213.835938 68.890625 216.25 66.738281 217.816406 64.785156 C 218.40625 64.054688 219.089844 63.273438 220.03125 63.140625 C 218.09375 61.855469 216.183594 60.53125 214.296875 59.175781 " fill-opacity="1" fill-rule="nonzero"/><path fill="#547fdd" d="M 259.648438 63.542969 C 259.515625 63.503906 259.582031 63.269531 259.71875 63.246094 C 259.871094 63.242188 259.992188 63.300781 260.089844 63.414062 C 262.679688 65.691406 264.917969 68.265625 266.8125 71.140625 C 267.445312 67.933594 267.71875 64.695312 267.628906 61.429688 C 267.609375 60.597656 267.558594 59.746094 267.242188 58.976562 C 267.1875 58.816406 267.09375 58.679688 266.960938 58.570312 C 266.648438 58.351562 266.214844 58.519531 265.878906 58.710938 C 263.980469 59.796875 262.371094 61.207031 261.050781 62.949219 " fill-opacity="1" fill-rule="nonzero"/><path fill="#547fdd" d="M 235.949219 17.570312 C 236.226562 21.429688 236.585938 25.488281 238.785156 28.675781 C 238.867188 28.832031 238.992188 28.933594 239.164062 28.980469 C 239.386719 29.015625 239.566406 28.804688 239.6875 28.617188 C 240.351562 27.597656 240.867188 26.511719 241.234375 25.359375 C 241.816406 23.523438 241.996094 21.589844 242.167969 19.671875 C 242.234375 18.929688 242.289062 18.128906 241.894531 17.496094 C 241.5 16.863281 240.472656 16.585938 240.007812 17.171875 " fill-opacity="1" fill-rule="nonzero"/><path fill="#547fdd" d="M 227.234375 20.636719 C 228.363281 22.871094 229.847656 24.839844 231.679688 26.546875 C 232.003906 26.847656 232.539062 27.132812 232.832031 26.804688 C 232.941406 26.652344 232.992188 26.484375 232.988281 26.300781 C 233.199219 23.546875 232.933594 20.839844 232.1875 18.179688 " fill-opacity="1" fill-rule="nonzero"/><path fill="#547fdd" d="M 245.695312 18.050781 L 245.324219 22.195312 C 245.195312 23.652344 245.078125 25.1875 245.722656 26.5 C 245.832031 26.722656 246.015625 26.964844 246.261719 26.941406 C 246.464844 26.929688 246.609375 26.753906 246.730469 26.59375 C 247.832031 25.105469 248.914062 23.601562 249.976562 22.082031 C 250.386719 21.5 250.808594 20.851562 250.761719 20.144531 " fill-opacity="1" fill-rule="nonzero"/><path fill="#547fdd" d="M 251.804688 19.492188 L 254.609375 21.179688 C 254.792969 21.3125 254.996094 21.394531 255.21875 21.417969 C 255.597656 21.417969 255.898438 21.109375 256.140625 20.816406 C 257.296875 19.394531 258.417969 17.792969 260.113281 17.097656 C 260.347656 17.027344 260.554688 16.90625 260.730469 16.734375 C 261.054688 16.328125 260.71875 15.675781 260.226562 15.503906 C 259.734375 15.328125 259.199219 15.476562 258.703125 15.640625 C 256.753906 16.28125 254.882812 17.09375 253.089844 18.078125 " fill-opacity="1" fill-rule="nonzero"/><path fill="#547fdd" d="M 217.765625 16.433594 C 218.886719 16.925781 219.894531 17.585938 220.785156 18.421875 C 221.679688 19.257812 222.40625 20.214844 222.96875 21.296875 C 223.070312 21.5 223.203125 21.738281 223.429688 21.753906 C 223.605469 21.746094 223.75 21.683594 223.875 21.558594 L 226.238281 19.726562 C 226.300781 19.691406 226.34375 19.636719 226.367188 19.566406 C 226.382812 19.46875 226.671875 19.015625 226.585938 18.953125 C 224.375 17.148438 221.304688 16.320312 218.484375 15.898438 " fill-opacity="1" fill-rule="nonzero"/><path fill="#547fdd" d="M 223.355469 53.613281 C 223.925781 53.5625 224.492188 53.566406 225.0625 53.625 C 225.628906 53.683594 226.183594 53.796875 226.730469 53.964844 C 227.277344 54.132812 227.800781 54.355469 228.304688 54.625 C 228.804688 54.894531 229.277344 55.210938 229.714844 55.574219 C 230.15625 55.9375 230.554688 56.339844 230.917969 56.777344 C 231.277344 57.21875 231.59375 57.691406 231.859375 58.191406 C 232.128906 58.695312 232.34375 59.21875 232.507812 59.761719 C 232.671875 60.308594 232.785156 60.863281 232.839844 61.429688 C 234.421875 59.886719 235.355469 57.613281 235.003906 55.433594 C 234.980469 55.214844 234.914062 55.007812 234.800781 54.820312 C 234.5625 54.472656 234.117188 54.34375 233.710938 54.230469 C 231.542969 53.636719 229.457031 52.828125 227.457031 51.808594 C 226.859375 51.503906 226.191406 51.175781 225.554688 51.367188 C 224.914062 51.5625 224.398438 52.3125 223.699219 52.28125 L 223.671875 53.0625 " fill-opacity="1" fill-rule="nonzero"/><path fill="#547fdd" d="M 245.621094 60.109375 C 245.574219 60.058594 245.546875 60.203125 245.621094 60.203125 C 245.699219 60.203125 245.726562 60.125 245.746094 60.0625 C 246.078125 58.980469 246.605469 58.003906 247.324219 57.125 C 248.039062 56.25 248.894531 55.539062 249.890625 54.996094 C 250.886719 54.460938 251.945312 54.109375 253.0625 53.9375 C 254.183594 53.765625 255.296875 53.789062 256.410156 53.996094 C 256.023438 53.300781 255.605469 52.570312 254.929688 52.144531 C 253.835938 51.457031 252.410156 51.75 251.1875 52.160156 C 249.640625 52.683594 248.132812 53.363281 246.515625 53.625 C 245.898438 53.722656 245.246094 53.769531 244.722656 54.113281 C 243.960938 54.613281 243.691406 55.644531 243.839844 56.535156 C 243.984375 57.425781 244.476562 58.234375 244.945312 59.011719 " fill-opacity="1" fill-rule="nonzero"/><path fill="#ff1a6c" d="M 225.257812 40.320312 C 226.714844 40.773438 228.15625 40.738281 229.585938 40.214844 C 229.859375 40.113281 230.179688 39.890625 230.097656 39.609375 C 230.054688 39.507812 229.992188 39.425781 229.902344 39.363281 C 228.984375 38.601562 227.6875 38.496094 226.503906 38.597656 C 226.121094 38.605469 225.765625 38.699219 225.429688 38.875 C 225.261719 38.96875 225.132812 39.097656 225.042969 39.265625 C 224.953125 39.433594 224.921875 39.613281 224.941406 39.804688 C 225.011719 40.09375 225.183594 40.300781 225.457031 40.425781 C 225.714844 40.542969 225.984375 40.609375 226.269531 40.628906 C 227.179688 40.722656 228.085938 40.679688 228.984375 40.5 C 229.246094 40.464844 229.492188 40.375 229.714844 40.230469 C 229.957031 40.066406 230.058594 39.84375 230.019531 39.554688 C 229.933594 39.289062 229.761719 39.105469 229.503906 39 C 228.414062 38.429688 227.101562 38.609375 225.890625 38.804688 C 225.582031 38.855469 225.226562 38.949219 225.125 39.246094 C 225.109375 39.316406 225.113281 39.386719 225.132812 39.457031 C 225.152344 39.527344 225.1875 39.589844 225.238281 39.644531 C 225.289062 39.695312 225.351562 39.734375 225.417969 39.757812 C 225.488281 39.78125 225.558594 39.785156 225.632812 39.773438 " fill-opacity="1" fill-rule="nonzero"/><path fill="#ff1a6c" d="M 253.753906 40.320312 C 252.300781 40.773438 250.859375 40.738281 249.429688 40.214844 C 249.152344 40.113281 248.832031 39.890625 248.914062 39.609375 C 248.957031 39.507812 249.023438 39.425781 249.113281 39.363281 C 250.027344 38.601562 251.324219 38.496094 252.511719 38.597656 C 252.890625 38.605469 253.25 38.699219 253.585938 38.875 C 253.753906 38.96875 253.882812 39.097656 253.96875 39.265625 C 254.058594 39.433594 254.09375 39.613281 254.070312 39.804688 C 254 40.09375 253.828125 40.300781 253.554688 40.425781 C 253.296875 40.542969 253.027344 40.609375 252.742188 40.628906 C 251.832031 40.722656 250.925781 40.679688 250.023438 40.5 C 249.761719 40.464844 249.515625 40.375 249.292969 40.230469 C 249.050781 40.066406 248.949219 39.84375 248.988281 39.554688 C 249.074219 39.289062 249.246094 39.105469 249.503906 39 C 250.59375 38.429688 251.90625 38.609375 253.121094 38.804688 C 253.429688 38.855469 253.785156 38.949219 253.882812 39.246094 C 253.898438 39.316406 253.898438 39.390625 253.875 39.460938 C 253.855469 39.53125 253.820312 39.589844 253.769531 39.644531 C 253.71875 39.695312 253.660156 39.734375 253.589844 39.757812 C 253.519531 39.78125 253.449219 39.785156 253.375 39.773438 " fill-opacity="1" fill-rule="nonzero"/><path fill="#233356" d="M 227.101562 35.375 C 227.453125 34.507812 228.945312 34.375 229.742188 34.398438 C 230.742188 34.429688 231.539062 34.761719 232.175781 35.5625 C 233.035156 36.664062 234.574219 35.121094 233.722656 34.019531 C 231.671875 31.375 226.332031 31.527344 225.007812 34.792969 C 224.464844 36.089844 226.578125 36.65625 227.101562 35.375 Z M 227.101562 35.375 " fill-opacity="1" fill-rule="nonzero"/><path fill="#233356" d="M 231.496094 46.339844 C 230.960938 46.695312 233.640625 49.117188 234.949219 49.109375 C 236.800781 49.09375 238.660156 48.296875 239.652344 46.847656 C 240.539062 48.148438 242.136719 48.925781 243.796875 49.078125 C 245.285156 49.21875 248.402344 46.890625 248 46.507812 C 247.792969 46.285156 247.535156 46.160156 247.226562 46.140625 C 246.921875 46.117188 246.648438 46.203125 246.410156 46.394531 C 244.707031 47.769531 241.058594 46.730469 241.097656 44.328125 C 241.667969 44.0625 242.210938 43.757812 242.734375 43.410156 C 243.914062 42.652344 242.820312 40.765625 241.628906 41.527344 C 241.210938 41.789062 240.773438 42.019531 240.316406 42.214844 C 240.125 42.28125 239.9375 42.363281 239.753906 42.453125 C 239.714844 42.480469 239.675781 42.5 239.632812 42.523438 C 238.890625 42.292969 238.183594 41.992188 237.507812 41.613281 C 236.308594 40.871094 235.207031 42.753906 236.398438 43.492188 C 236.960938 43.84375 237.550781 44.144531 238.171875 44.386719 C 238.148438 46.738281 234.550781 47.757812 232.859375 46.394531 C 232.664062 46.238281 232.4375 46.15625 232.1875 46.144531 C 231.9375 46.136719 231.707031 46.199219 231.496094 46.339844 Z M 239.605469 42.535156 C 239.484375 42.585938 239.484375 42.535156 239.605469 42.535156 Z M 239.605469 42.535156 " fill-opacity="1" fill-rule="nonzero"/><path fill="#233356" d="M 231.238281 86.773438 C 232.644531 86.84375 231.074219 84.585938 230.992188 84.582031 C 231.015625 82.203125 230.914062 79.699219 229.621094 77.617188 C 228.457031 75.742188 226.429688 74.476562 224.167969 74.753906 C 221.859375 75.039062 220.609375 76.953125 219.804688 78.9375 C 218.867188 81.335938 218.71875 83.777344 219.359375 86.269531 C 219.117188 86.40625 218.554688 89.34375 219.742188 88.582031 C 223.179688 86.386719 227.308594 86.574219 231.238281 86.773438 Z M 231.238281 86.773438 " fill-opacity="1" fill-rule="nonzero"/><path fill="#233356" d="M 230.402344 100.699219 C 230.097656 100.699219 229.839844 100.804688 229.628906 101.019531 C 229.417969 101.230469 229.3125 101.488281 229.304688 101.785156 L 229.304688 101.867188 C 229.308594 102.167969 229.417969 102.421875 229.628906 102.636719 C 229.730469 102.738281 229.847656 102.820312 229.984375 102.875 C 230.117188 102.929688 230.257812 102.957031 230.402344 102.957031 C 230.546875 102.957031 230.6875 102.929688 230.820312 102.875 C 230.957031 102.820312 231.074219 102.738281 231.175781 102.636719 C 231.386719 102.421875 231.492188 102.167969 231.496094 101.867188 L 231.496094 101.785156 C 231.496094 101.488281 231.386719 101.230469 231.175781 101.019531 C 230.960938 100.804688 230.703125 100.699219 230.402344 100.699219 Z M 230.402344 100.699219 " fill-opacity="1" fill-rule="nonzero"/><path fill="#233356" d="M 234.210938 101.828125 C 235.617188 101.828125 235.621094 99.648438 234.210938 99.648438 C 232.800781 99.648438 232.800781 101.828125 234.210938 101.828125 Z M 234.210938 101.828125 " fill-opacity="1" fill-rule="nonzero"/><path fill="#233356" d="M 231.292969 99.328125 C 232.703125 99.328125 232.703125 97.148438 231.292969 97.148438 C 229.878906 97.148438 229.882812 99.328125 231.292969 99.328125 Z M 231.292969 99.328125 " fill-opacity="1" fill-rule="nonzero"/><path fill="#233356" d="M 247.144531 35.5625 C 247.429688 35.183594 247.785156 34.890625 248.210938 34.6875 C 248.640625 34.480469 249.089844 34.386719 249.566406 34.398438 C 250.386719 34.382812 251.84375 34.492188 252.203125 35.375 C 252.726562 36.65625 254.84375 36.09375 254.316406 34.792969 C 252.988281 31.527344 247.648438 31.390625 245.597656 34.019531 C 244.742188 35.117188 246.28125 36.667969 247.144531 35.5625 Z M 247.144531 35.5625 " fill-opacity="1" fill-rule="nonzero"/><path fill="#233356" d="M 275.34375 66.25 C 275.921875 62.375 276.347656 58.195312 275.582031 54.316406 C 275.242188 52.582031 274.546875 50.554688 273.269531 49.265625 C 271.941406 47.945312 269.777344 48.265625 268.097656 48.5625 C 264.386719 49.222656 261.097656 51.316406 258.304688 53.769531 C 257.644531 52.703125 256.78125 51.832031 255.714844 51.164062 C 257.871094 49.652344 259.542969 47.726562 260.730469 45.386719 C 261.863281 43.121094 262.527344 40.722656 262.722656 38.195312 C 262.917969 35.671875 262.625 33.199219 261.851562 30.789062 C 263.417969 28.578125 264.433594 26.140625 264.90625 23.480469 C 265.3125 21.113281 265.597656 17.929688 264.425781 15.722656 C 263.160156 13.332031 259.925781 14.046875 257.773438 14.59375 C 255.171875 15.273438 252.859375 16.492188 250.839844 18.257812 L 250.773438 18.226562 C 248.902344 17.46875 246.972656 16.90625 244.988281 16.535156 C 243.273438 16.195312 241.40625 15.761719 239.652344 15.761719 C 237.898438 15.761719 236.027344 16.199219 234.316406 16.535156 C 232.335938 16.90625 230.410156 17.472656 228.539062 18.230469 L 228.472656 18.261719 C 226.5 16.542969 224.253906 15.335938 221.726562 14.644531 C 219.53125 14.046875 216.195312 13.289062 214.882812 15.714844 C 213.726562 17.855469 213.996094 20.976562 214.371094 23.277344 C 214.820312 26.015625 215.851562 28.519531 217.457031 30.789062 C 216.78125 32.871094 216.46875 35.007812 216.523438 37.195312 C 216.574219 39.382812 216.988281 41.5 217.765625 43.546875 C 218.734375 46.058594 220.214844 48.441406 222.25 50.234375 C 222.648438 50.582031 223.066406 50.910156 223.503906 51.214844 C 222.484375 51.878906 221.65625 52.726562 221.015625 53.761719 C 218.222656 51.3125 214.933594 49.210938 211.222656 48.554688 C 209.539062 48.253906 207.371094 47.925781 206.046875 49.257812 C 204.769531 50.546875 204.078125 52.574219 203.734375 54.304688 C 202.957031 58.1875 203.386719 62.363281 203.976562 66.25 C 204.59375 70.414062 205.859375 74.492188 208.207031 78.023438 C 208.253906 78.09375 208.308594 78.160156 208.371094 78.21875 C 205.539062 86.199219 205.273438 94.992188 207.820312 103.109375 C 208.503906 105.296875 209.335938 107.5625 210.628906 109.472656 C 211.882812 111.316406 213.539062 112.800781 215.339844 114.097656 C 219.21875 116.921875 223.445312 119.0625 228.023438 120.515625 C 231.398438 121.566406 234.796875 121.933594 238.308594 121.976562 C 241.570312 122.011719 244.789062 122.035156 247.996094 121.378906 C 252.601562 120.4375 257 118.496094 261 116.0625 C 265.003906 113.632812 268.398438 110.863281 270.257812 106.488281 C 274.0625 97.53125 274.175781 87.328125 270.945312 78.210938 C 271.007812 78.152344 271.0625 78.085938 271.109375 78.015625 C 273.46875 74.484375 274.726562 70.402344 275.34375 66.25 Z M 257.261719 57.660156 C 257.253906 57.773438 257.242188 57.886719 257.222656 57.996094 C 256.746094 57.433594 254.640625 55.914062 254.25 56.304688 C 253.804688 56.746094 255.46875 59.292969 256.082031 60.019531 C 255.308594 60.679688 254.429688 61.121094 253.4375 61.351562 C 253.125 60.453125 252.8125 59.558594 252.503906 58.664062 C 252.042969 57.339844 250.941406 60.824219 251.21875 61.617188 C 249.640625 61.640625 248.011719 61.3125 246.703125 60.515625 C 245.011719 59.480469 243.78125 57.292969 244.640625 55.339844 C 244.664062 55.289062 244.679688 55.234375 244.695312 55.183594 C 245.324219 55.097656 245.945312 54.996094 246.554688 54.875 C 249.007812 54.421875 251.34375 53.628906 253.5625 52.488281 C 253.660156 52.5625 253.769531 52.621094 253.886719 52.660156 C 255.71875 53.292969 257.378906 55.710938 257.261719 57.660156 Z M 257.78125 16.859375 C 258.695312 16.582031 259.628906 16.402344 260.578125 16.3125 C 258.523438 17.492188 256.730469 18.84375 255.238281 20.785156 C 254.527344 20.242188 253.78125 19.75 253 19.316406 C 254.4375 18.195312 256.03125 17.375 257.78125 16.851562 Z M 221.523438 16.859375 C 223.273438 17.378906 224.867188 18.199219 226.308594 19.316406 C 225.527344 19.753906 224.777344 20.242188 224.066406 20.785156 C 222.566406 18.832031 220.792969 17.484375 218.726562 16.304688 C 219.679688 16.394531 220.609375 16.574219 221.523438 16.851562 Z M 222.410156 47.257812 C 221.902344 46.65625 221.445312 46.015625 221.039062 45.339844 C 221.519531 45.101562 223.4375 43.964844 223.269531 43.359375 C 223.121094 42.824219 222.484375 42.398438 221.925781 42.597656 C 221.285156 42.828125 220.660156 43.09375 220.050781 43.394531 C 219.742188 42.683594 219.488281 41.953125 219.289062 41.207031 C 220.273438 40.949219 223.027344 37.972656 221.660156 38.328125 L 219.226562 38.96875 C 219.097656 38.929688 218.964844 38.914062 218.828125 38.921875 C 218.535156 36.644531 218.6875 34.394531 219.285156 32.175781 C 219.554688 31.175781 220.410156 28.15625 220.007812 27.855469 C 219.527344 27.496094 218.816406 27.480469 218.480469 28.167969 C 218.464844 28.199219 218.457031 28.230469 218.441406 28.261719 C 216.667969 25.117188 215.828125 21.367188 216.496094 17.792969 C 216.511719 17.722656 216.523438 17.652344 216.535156 17.589844 C 218.828125 18.777344 220.859375 20.074219 222.425781 22.214844 C 221.761719 22.875 221.671875 26.644531 222.472656 25.5 C 224.242188 22.949219 226.933594 21.160156 229.816406 20.050781 C 231.472656 19.433594 233.167969 18.960938 234.90625 18.640625 C 236.433594 18.335938 238.097656 17.941406 239.660156 17.941406 C 241.21875 17.941406 242.882812 18.335938 244.414062 18.640625 C 246.152344 18.960938 247.847656 19.433594 249.503906 20.050781 C 252.382812 21.164062 255.070312 22.949219 256.847656 25.5 C 257.644531 26.640625 257.566406 22.878906 256.894531 22.214844 C 258.457031 20.078125 260.492188 18.78125 262.78125 17.589844 C 262.796875 17.652344 262.8125 17.722656 262.824219 17.792969 C 263.488281 21.363281 262.65625 25.117188 260.867188 28.261719 C 260.855469 28.234375 260.84375 28.203125 260.828125 28.171875 C 260.777344 28.054688 260.707031 27.953125 260.617188 27.867188 C 260.527344 27.777344 260.421875 27.714844 260.304688 27.667969 C 260.183594 27.625 260.0625 27.605469 259.9375 27.609375 C 259.808594 27.617188 259.691406 27.648438 259.574219 27.703125 C 259.019531 27.925781 259.84375 31.476562 260.121094 32.628906 C 260.621094 34.710938 260.734375 36.816406 260.457031 38.9375 C 260.324219 38.929688 260.195312 38.945312 260.070312 38.984375 L 257.636719 38.34375 C 256.273438 37.984375 259.019531 40.960938 260 41.222656 C 259.84375 41.820312 259.652344 42.40625 259.429688 42.984375 C 259.371094 43.128906 259.308594 43.277344 259.25 43.425781 C 258.640625 43.121094 258.011719 42.855469 257.371094 42.625 C 256.8125 42.425781 256.171875 42.84375 256.023438 43.386719 C 255.855469 43.992188 257.792969 45.125 258.265625 45.367188 C 257.859375 46.042969 257.40625 46.683594 256.898438 47.285156 C 256.476562 47.066406 254.441406 46.425781 254.1875 46.90625 C 253.882812 47.476562 254.089844 48.027344 254.582031 48.394531 C 254.800781 48.570312 255.058594 48.730469 255.304688 48.882812 L 255.195312 48.976562 C 253.085938 50.699219 250.308594 51.703125 247.699219 52.390625 C 245.175781 53.023438 242.613281 53.308594 240.007812 53.246094 C 237.828125 53.222656 235.703125 53.226562 233.550781 52.824219 C 230.839844 52.347656 228.277344 51.453125 225.859375 50.140625 C 225.207031 49.765625 224.59375 49.335938 224.023438 48.851562 C 224.261719 48.699219 224.496094 48.542969 224.722656 48.375 C 224.945312 48.203125 225.265625 47.117188 225.113281 46.886719 C 224.824219 46.425781 222.835938 47.027344 222.417969 47.253906 Z M 225.421875 52.644531 C 225.519531 52.609375 225.613281 52.5625 225.699219 52.503906 C 227.136719 53.210938 228.625 53.785156 230.164062 54.226562 C 231.625 54.652344 233.105469 54.96875 234.613281 55.175781 C 234.628906 55.226562 234.644531 55.273438 234.667969 55.324219 C 235.527344 57.277344 234.292969 59.464844 232.605469 60.5 C 231.292969 61.304688 229.667969 61.628906 228.089844 61.601562 C 228.363281 60.808594 228.640625 60.015625 228.914062 59.226562 C 229.375 57.902344 226.179688 60.4375 225.871094 61.335938 C 224.878906 61.109375 224 60.667969 223.230469 60.007812 C 223.839844 59.285156 225.503906 56.738281 225.058594 56.296875 C 224.667969 55.898438 222.566406 57.421875 222.085938 57.988281 C 222.066406 57.875 222.054688 57.765625 222.046875 57.652344 C 221.925781 55.710938 223.585938 53.292969 225.421875 52.644531 Z M 269.796875 81.742188 C 270.707031 85.121094 271.132812 88.558594 271.074219 92.054688 C 271.015625 95.550781 270.472656 98.972656 269.453125 102.320312 C 268.789062 104.472656 267.988281 106.671875 266.683594 108.527344 C 265.464844 110.257812 263.773438 111.609375 262.035156 112.792969 C 258.417969 115.246094 254.480469 117.289062 250.277344 118.546875 C 247.132812 119.484375 244.070312 119.785156 240.8125 119.796875 C 237.957031 119.808594 235.085938 119.855469 232.269531 119.324219 C 227.972656 118.515625 223.914062 116.8125 220.160156 114.613281 C 216.265625 112.332031 212.792969 109.765625 211 105.496094 C 207.796875 97.867188 207.390625 89.132812 209.671875 81.1875 C 210.089844 79.734375 211.148438 75.726562 210.699219 75.441406 C 210.25 75.152344 209.65625 75.160156 209.355469 75.714844 C 206.183594 70.207031 205.21875 63.199219 205.59375 56.972656 C 205.691406 55.332031 205.980469 53.65625 206.71875 52.171875 C 207.199219 51.203125 207.605469 50.496094 208.773438 50.492188 C 209.664062 50.492188 210.542969 50.601562 211.40625 50.8125 C 214.726562 51.597656 217.601562 53.585938 220.089844 55.863281 C 219.964844 56.324219 219.890625 56.792969 219.871094 57.269531 C 219.847656 57.992188 219.960938 58.691406 220.21875 59.367188 C 220.476562 60.042969 220.851562 60.640625 221.351562 61.167969 C 220.863281 61.414062 220.402344 61.699219 219.964844 62.023438 C 218.355469 60.402344 216.640625 58.90625 214.820312 57.527344 C 214.125 57.003906 213.226562 56.042969 212.273438 56.109375 C 211.273438 56.183594 211.046875 57.089844 210.925781 57.917969 C 210.207031 62.796875 210.660156 67.570312 212.277344 72.234375 C 212.730469 73.554688 213.058594 67.015625 212.867188 64.609375 C 212.773438 63.429688 212.753906 62.25 212.804688 61.070312 C 212.828125 60.484375 212.871094 59.890625 212.933594 59.308594 C 212.949219 59.164062 212.972656 59.023438 212.988281 58.882812 C 213.171875 59.015625 213.355469 59.144531 213.539062 59.28125 C 214.167969 59.753906 214.785156 60.246094 215.386719 60.757812 C 216.410156 61.621094 217.378906 62.535156 218.324219 63.480469 C 217.980469 63.839844 217.660156 64.214844 217.351562 64.59375 C 216.488281 65.683594 221.492188 63.25 223.359375 62.71875 C 223.988281 63.050781 224.644531 63.300781 225.339844 63.460938 C 228.355469 64.164062 231.960938 63.796875 234.464844 61.867188 C 236.480469 60.3125 237.457031 57.824219 236.941406 55.425781 C 238.753906 55.558594 240.5625 55.558594 242.375 55.425781 C 242.257812 56.015625 242.222656 56.605469 242.269531 57.203125 C 242.3125 57.800781 242.441406 58.378906 242.652344 58.941406 C 242.859375 59.503906 243.140625 60.023438 243.496094 60.507812 C 243.851562 60.992188 244.265625 61.417969 244.738281 61.785156 C 247.246094 63.792969 250.921875 64.179688 253.980469 63.46875 C 254.671875 63.304688 255.328125 63.058594 255.957031 62.726562 C 257.824219 63.257812 262.820312 65.691406 261.960938 64.601562 C 261.660156 64.222656 261.332031 63.847656 260.992188 63.488281 C 261.933594 62.539062 262.910156 61.628906 263.929688 60.765625 C 264.457031 60.324219 264.992188 59.894531 265.539062 59.472656 C 265.796875 59.273438 266.0625 59.078125 266.328125 58.886719 C 266.34375 59.03125 266.367188 59.171875 266.382812 59.316406 C 266.445312 59.902344 266.488281 60.492188 266.511719 61.078125 C 266.5625 62.257812 266.542969 63.4375 266.449219 64.613281 C 266.261719 67.023438 266.582031 73.5625 267.042969 72.242188 C 268.65625 67.578125 269.105469 62.804688 268.390625 57.921875 C 268.277344 57.144531 268.09375 56.296875 267.1875 56.136719 C 266.230469 55.96875 265.367188 56.882812 264.671875 57.402344 C 262.789062 58.8125 261.019531 60.355469 259.363281 62.027344 C 258.925781 61.703125 258.464844 61.417969 257.976562 61.171875 C 258.960938 60.128906 259.453125 58.894531 259.457031 57.464844 C 259.453125 56.921875 259.378906 56.386719 259.234375 55.863281 C 261.714844 53.585938 264.59375 51.609375 267.914062 50.816406 C 268.714844 50.621094 269.527344 50.515625 270.351562 50.496094 C 271.570312 50.480469 271.960938 50.960938 272.511719 52.003906 C 273.316406 53.527344 273.628906 55.273438 273.730469 56.976562 C 274.09375 63.210938 273.144531 70.210938 269.96875 75.71875 C 269.632812 75.113281 268.953125 75.160156 268.496094 75.535156 C 268.113281 75.839844 269.355469 80.101562 269.796875 81.742188 Z M 269.796875 81.742188 " fill-opacity="1" fill-rule="nonzero"/><path fill="#233356" d="M 259.578125 79.136719 C 258.789062 77.074219 257.511719 75.050781 255.136719 74.753906 C 252.9375 74.480469 250.96875 75.671875 249.785156 77.464844 C 248.398438 79.5625 248.292969 82.148438 248.3125 84.582031 C 248.230469 84.582031 246.660156 86.84375 248.070312 86.773438 C 252 86.574219 256.125 86.386719 259.566406 88.59375 C 260.753906 89.355469 260.195312 86.417969 259.949219 86.285156 C 260.574219 83.863281 260.453125 81.480469 259.578125 79.136719 Z M 259.578125 79.136719 " fill-opacity="1" fill-rule="nonzero"/><path fill="#233356" d="M 253.664062 101.445312 C 252.730469 102.605469 251.839844 103.964844 250.488281 104.679688 C 249.140625 105.394531 247.550781 105.523438 246.082031 105.25 C 243.125 104.699219 240.417969 102.207031 240.871094 99.019531 C 242.65625 98.03125 245.027344 96.648438 244.992188 94.480469 C 244.957031 92.097656 241.578125 91.300781 239.652344 91.722656 C 237.699219 91.296875 234.390625 92.101562 234.3125 94.480469 C 234.242188 96.632812 236.660156 98.039062 238.4375 99.019531 C 238.878906 102.214844 236.179688 104.6875 233.222656 105.25 C 231.6875 105.566406 230.21875 105.375 228.816406 104.679688 C 227.46875 103.964844 226.574219 102.605469 225.640625 101.445312 C 224.757812 100.34375 223.222656 101.902344 224.09375 102.988281 C 225.421875 104.625 226.632812 106.214844 228.664062 106.992188 C 229.855469 107.433594 231.085938 107.617188 232.355469 107.539062 C 232.761719 110.09375 233.503906 112.542969 234.589844 114.890625 C 235.519531 116.882812 237.363281 119.785156 239.953125 119.515625 C 242.214844 119.273438 243.742188 116.9375 244.621094 115.09375 C 245.757812 112.6875 246.53125 110.171875 246.945312 107.546875 C 248.214844 107.625 249.445312 107.445312 250.640625 107.003906 C 252.671875 106.226562 253.894531 104.636719 255.210938 103 C 256.082031 101.902344 254.546875 100.351562 253.664062 101.445312 Z M 243.09375 113.195312 C 242.546875 114.464844 241.488281 117.140625 239.828125 117.332031 C 238.964844 117.429688 238.011719 116.375 237.570312 115.757812 C 237.023438 114.953125 236.570312 114.097656 236.210938 113.195312 C 235.386719 111.261719 234.816406 109.257812 234.492188 107.1875 L 234.5625 107.167969 C 235.632812 106.871094 236.605469 106.386719 237.488281 105.710938 C 238.367188 105.039062 239.089844 104.222656 239.652344 103.269531 C 240.210938 104.222656 240.933594 105.039062 241.8125 105.714844 C 242.695312 106.386719 243.671875 106.871094 244.742188 107.167969 L 244.808594 107.1875 C 244.488281 109.261719 243.917969 111.261719 243.09375 113.195312 Z M 243.09375 113.195312 " fill-opacity="1" fill-rule="nonzero"/><path fill="#233356" d="M 247.8125 101.785156 L 247.8125 101.867188 C 247.816406 102.167969 247.921875 102.421875 248.132812 102.636719 C 248.234375 102.738281 248.351562 102.820312 248.488281 102.875 C 248.621094 102.929688 248.761719 102.957031 248.90625 102.957031 C 249.050781 102.957031 249.191406 102.929688 249.324219 102.875 C 249.460938 102.820312 249.578125 102.738281 249.679688 102.636719 C 249.890625 102.421875 249.996094 102.167969 250 101.867188 L 250 101.785156 C 250 101.488281 249.890625 101.230469 249.679688 101.019531 C 249.578125 100.914062 249.460938 100.835938 249.324219 100.78125 C 249.191406 100.726562 249.050781 100.699219 248.90625 100.699219 C 248.761719 100.699219 248.621094 100.726562 248.488281 100.78125 C 248.351562 100.835938 248.234375 100.914062 248.132812 101.019531 C 247.921875 101.230469 247.816406 101.488281 247.8125 101.785156 Z M 247.8125 101.785156 " fill-opacity="1" fill-rule="nonzero"/><path fill="#233356" d="M 245.097656 101.828125 C 246.503906 101.828125 246.507812 99.648438 245.097656 99.648438 C 243.6875 99.648438 243.6875 101.828125 245.097656 101.828125 Z M 245.097656 101.828125 " fill-opacity="1" fill-rule="nonzero"/><path fill="#233356" d="M 248.015625 99.328125 C 249.425781 99.328125 249.425781 97.148438 248.015625 97.148438 C 246.605469 97.148438 246.605469 99.328125 248.015625 99.328125 Z M 248.015625 99.328125 " fill-opacity="1" fill-rule="nonzero"/><path fill="#ffffff" d="M 225.277344 82.289062 C 225.125 82.175781 224.925781 82.398438 224.945312 82.582031 C 224.964844 82.71875 225.03125 82.824219 225.140625 82.90625 C 225.25 82.988281 225.371094 83.015625 225.507812 82.996094 C 225.640625 82.960938 225.738281 82.886719 225.800781 82.765625 C 225.863281 82.644531 225.871094 82.519531 225.820312 82.390625 C 225.757812 82.269531 225.65625 82.191406 225.519531 82.167969 C 225.382812 82.140625 225.261719 82.171875 225.15625 82.265625 C 225.066406 82.367188 225.03125 82.484375 225.0625 82.617188 C 225.089844 82.75 225.167969 82.84375 225.292969 82.898438 " fill-opacity="1" fill-rule="nonzero"/><path fill="#ffffff" d="M 223.34375 78.585938 C 223.125 78.464844 222.890625 78.414062 222.640625 78.429688 C 222.390625 78.449219 222.167969 78.53125 221.96875 78.683594 L 221.953125 78.683594 C 221.050781 78.960938 220.921875 80.390625 221.324219 81.105469 C 221.847656 82.035156 223.136719 81.964844 223.761719 81.179688 C 224.382812 80.394531 224.289062 79.085938 223.34375 78.585938 Z M 223.34375 78.585938 " fill-opacity="1" fill-rule="nonzero"/><path fill="#ffffff" d="M 225.042969 81.890625 L 224.980469 81.933594 C 224.828125 82.003906 224.71875 82.109375 224.648438 82.261719 C 224.585938 82.40625 224.570312 82.558594 224.605469 82.714844 C 224.636719 82.871094 224.714844 83.003906 224.832031 83.113281 C 225.0625 83.34375 225.335938 83.410156 225.648438 83.3125 C 225.960938 83.214844 226.144531 83.007812 226.203125 82.6875 C 226.253906 82.367188 226.140625 82.113281 225.875 81.929688 C 225.605469 81.746094 225.328125 81.730469 225.042969 81.890625 Z M 225.5 82.550781 Z M 225.464844 82.574219 L 225.488281 82.5625 C 225.488281 82.5625 225.488281 82.5625 225.488281 82.570312 Z M 225.464844 82.574219 " fill-opacity="1" fill-rule="nonzero"/><path fill="#ffffff" d="M 254.605469 82.289062 C 254.453125 82.175781 254.253906 82.398438 254.277344 82.582031 C 254.296875 82.71875 254.359375 82.824219 254.46875 82.90625 C 254.578125 82.988281 254.699219 83.015625 254.835938 82.996094 C 254.96875 82.960938 255.066406 82.882812 255.128906 82.761719 C 255.191406 82.644531 255.199219 82.519531 255.148438 82.390625 C 255.085938 82.269531 254.984375 82.191406 254.847656 82.167969 C 254.710938 82.140625 254.589844 82.171875 254.484375 82.265625 C 254.394531 82.367188 254.363281 82.484375 254.390625 82.617188 C 254.417969 82.75 254.496094 82.84375 254.621094 82.898438 " fill-opacity="1" fill-rule="nonzero"/><path fill="#ffffff" d="M 252.664062 78.585938 C 252.445312 78.464844 252.214844 78.414062 251.964844 78.429688 C 251.714844 78.449219 251.492188 78.53125 251.292969 78.683594 L 251.277344 78.683594 C 250.375 78.960938 250.242188 80.390625 250.648438 81.105469 C 251.171875 82.035156 252.457031 81.964844 253.082031 81.179688 C 253.707031 80.394531 253.617188 79.085938 252.664062 78.585938 Z M 252.664062 78.585938 " fill-opacity="1" fill-rule="nonzero"/><path fill="#ffffff" d="M 254.371094 81.890625 C 254.351562 81.90625 254.328125 81.917969 254.308594 81.933594 C 254.15625 82.003906 254.046875 82.113281 253.976562 82.261719 C 253.914062 82.410156 253.898438 82.558594 253.933594 82.714844 C 253.964844 82.871094 254.042969 83.003906 254.160156 83.113281 C 254.390625 83.339844 254.664062 83.40625 254.976562 83.3125 C 255.289062 83.214844 255.472656 83.007812 255.53125 82.6875 C 255.582031 82.367188 255.472656 82.113281 255.203125 81.929688 C 254.933594 81.746094 254.65625 81.730469 254.371094 81.890625 Z M 254.828125 82.550781 Z M 254.796875 82.574219 L 254.8125 82.5625 C 254.8125 82.566406 254.8125 82.570312 254.8125 82.570312 Z M 254.796875 82.574219 " fill-opacity="1" fill-rule="nonzero"/><g clip-path="url(#c47e418be8)"><g clip-path="url(#a07db96cd4)"><g clip-path="url(#06e50a719c)"><path fill="#f11926" d="M 1197.296875 133.519531 C 1197.359375 125.1875 1194.179688 117.070312 1188.285156 111.152344 C 1176.664062 99.496094 1159.417969 92.277344 1142.914062 95.429688 C 1126.785156 98.5 1111.960938 111.230469 1106.9375 126.976562 C 1104.34375 135.089844 1104.839844 143.875 1109.152344 151.300781 C 1111.570312 155.464844 1115.113281 159.046875 1118.972656 161.917969 C 1120.773438 163.273438 1122.699219 164.558594 1124.746094 165.535156 C 1126.964844 166.59375 1129.351562 167.300781 1131.6875 168.074219 C 1133.539062 168.683594 1135.609375 169.242188 1137.257812 170.335938 C 1137.320312 170.382812 1137.398438 170.398438 1137.46875 170.433594 C 1134.851562 175.347656 1134.050781 181.003906 1131.625 186.007812 C 1131.035156 187.230469 1132.316406 188.554688 1133.5625 188.132812 C 1137.222656 186.847656 1140.136719 183.996094 1142.769531 181.25 C 1144.21875 179.746094 1145.597656 178.164062 1147.003906 176.621094 C 1147.660156 175.898438 1148.328125 175.164062 1149.019531 174.460938 C 1149.339844 174.140625 1149.703125 173.816406 1150.035156 173.480469 C 1152.648438 174.015625 1155.550781 173.980469 1158.179688 173.800781 C 1159.703125 173.699219 1161.144531 173.496094 1162.523438 173.15625 C 1166.675781 172.871094 1170.804688 172 1174.625 170.511719 C 1181.359375 167.90625 1186.960938 163.144531 1190.71875 156.984375 C 1194.9375 150.144531 1197.242188 141.554688 1197.296875 133.519531 Z M 1177.929688 166.046875 C 1171.351562 170.050781 1163.621094 171.402344 1156.019531 171.335938 C 1154.976562 171.320312 1153.929688 171.320312 1152.878906 171.324219 C 1152.210938 171.246094 1151.523438 171.160156 1150.855469 171.082031 C 1150.578125 170.4375 1149.882812 170.050781 1149.054688 170.261719 C 1147.453125 170.667969 1145.953125 172.875 1144.863281 174.058594 C 1143.550781 175.496094 1142.246094 176.960938 1140.914062 178.394531 C 1139.363281 180.066406 1137.679688 181.886719 1135.785156 183.332031 C 1136.921875 179.160156 1137.5 174.851562 1138.933594 170.773438 C 1139.367188 170.71875 1139.777344 170.527344 1140.132812 170.136719 C 1140.78125 169.390625 1140.824219 167.871094 1139.910156 167.273438 C 1136.308594 164.90625 1131.953125 164.15625 1128.011719 162.570312 C 1123.957031 160.953125 1120.34375 158.199219 1117.265625 155.132812 C 1111.523438 149.433594 1108.519531 141.765625 1109.542969 133.667969 C 1110.488281 126.238281 1114.261719 119.449219 1119.132812 113.875 C 1124.222656 108.0625 1130.667969 103.375 1137.984375 100.804688 C 1152.660156 95.664062 1168.671875 100.167969 1180.640625 109.523438 C 1183.789062 111.980469 1186.835938 114.707031 1189.089844 118.03125 C 1191.195312 121.128906 1192.613281 124.679688 1193.273438 128.347656 C 1194.640625 136 1193.300781 143.90625 1190.394531 151.039062 C 1187.820312 157.277344 1183.703125 162.519531 1177.929688 166.046875 Z M 1177.929688 166.046875 " fill-opacity="1" fill-rule="nonzero"/></g></g></g><g clip-path="url(#7e9b336e54)"><g clip-path="url(#2e59c09750)"><g clip-path="url(#389c309789)"><path fill="#f11926" d="M 1172.835938 123.160156 C 1172.113281 121.132812 1170.332031 119.957031 1168.402344 119.699219 C 1166.234375 118.984375 1163.472656 119.769531 1161.589844 120.773438 C 1159.769531 121.738281 1158.160156 123.167969 1156.878906 124.773438 C 1156.097656 125.753906 1155.421875 126.785156 1154.765625 127.828125 C 1154.671875 127.570312 1154.492188 127.359375 1154.273438 127.191406 C 1154.089844 125.203125 1153.480469 123.25 1152.652344 121.363281 C 1151.519531 118.804688 1149.59375 115.230469 1146.511719 114.730469 C 1142.941406 114.132812 1140.777344 118.492188 1140.351562 121.371094 C 1139.632812 126.253906 1141.210938 130.925781 1142.03125 135.671875 C 1142.453125 138.15625 1142.523438 140.714844 1142.933594 143.214844 C 1143.070312 144.070312 1143.25 145.203125 1143.613281 146.207031 C 1143.65625 146.527344 1143.671875 146.855469 1143.714844 147.175781 C 1143.804688 147.941406 1143.902344 148.972656 1144.1875 149.875 C 1144.246094 150.523438 1144.308594 151.171875 1144.464844 151.800781 C 1144.621094 152.472656 1145.625 152.75 1146.140625 152.328125 C 1146.175781 152.300781 1146.210938 152.273438 1146.242188 152.246094 C 1147.792969 151.773438 1149.382812 150.976562 1150.828125 149.984375 C 1157.355469 146.402344 1163.84375 142.269531 1168.570312 136.5 C 1170.316406 134.367188 1172.703125 130.496094 1173.050781 127.046875 C 1173.277344 125.695312 1173.265625 124.34375 1172.835938 123.160156 Z M 1172.835938 123.160156 " fill-opacity="1" fill-rule="nonzero"/></g></g></g></svg>